<svg id="14bbca6e-95a6-4c73-b68c-f7d2786aa72f" data-name="Layer 1" xmlns="http://www.w3.org/2000/svg" viewBox="0 0 1072.28 230.09"><defs><style>.\39 f92f773-d70e-410a-bfd5-a9d98edd9776{fill:#231f20;}</style></defs><title>maxfield-logo-2016</title><path class="9f92f773-d70e-410a-bfd5-a9d98edd9776" d="M183.49,224.85c-.25-.35,7.74-14.95,10.68-21.37,4-8.74,0-16.27-8.52-14.78a269.42,269.42,0,0,0-35.7,9c-20.45,6.58-40.6,14.25-61,21-15.69,5.18-31.63,9.48-47.37,14.5-7.24,2.31-6,10.65-2.17,10.65,6.09-1.07,20.44-5.82,25.16-7.3,34.2-10.75,54-17.15,88.21-27.81,9.59-3,25.09-7.82,30.19-8.09,1.81,1-.37,5.28-1,6.41-7,12.1-14.13,24.09-21.19,36.14-1.12,1.92-2,4-3.06,6-.58,2.68.15,2,1.49,1.58,2.34-.77,3.71-2,6.47-3.55,20.35-14.91,41-28.48,63.79-38.15,1.29-.55,5.5-2.71,5.73,1.39.11,1.91-9.16,14.16-13.89,21.12-4.84,7.13-9.87,14.11-14.81,21.15-1.25,2.35.49,2,1.06,2.07,1.82-.38,3.95-.22,5.39-1.24,3.48-2.48,6.56-5.62,9.93-8.29,12.49-9.94,24.66-20.47,37.71-29.42,7.14-4.9,23.68-12.42,26.08-7.62,2.2,2.43-20.78,32.16-31.26,47.31-1.23,2,6.81,1.83,7.45.93a43.94,43.94,0,0,0,6.36-6.79c6.14-7.77,12.35-15.42,17.83-23.69a71.13,71.13,0,0,0,8-17.25c2.14-6.62-1.24-11.85-7.51-11.39-11.19.82-26,5-36.52,14.9-2.84,2.67-7.2,6.55-10.07,9.19-.41-.38,0-1.37.23-2.43.81-2.61,1.54-5.26,2.46-7.83,2.56-7.2.09-12.27-6.88-13.2a18,18,0,0,0-8.2.68c-10.64,3.42-19.95,10.16-29.74,15.65-4.66,2.61-9,6-13.41,9.1m424.91-24.82c.88-2,5.36-8.2,7.7-11.48,9.57-13.45,18.62-27.43,29-40.1s22.81-22.51,39.42-22.78c1.41,0,2.47-1.31,3.64-3,2.63-4.59-2.52-4.49-4-4.44-6.27.21-13.35.28-18.69,2.22-14.09,5-25.94,14.43-35.15,27.15-10.91,15.08-20.85,31-31.41,46.42-3.17,4.62-4.43,8.32-12.86,8.87-7.4.29-14.24.56-21.35,1.08-3.48.25-6,1.63-5.89,6.43.09,5.07,3.3,4.13,5.87,4.19,6.46.14,20.81-2.41,20,0a28.2,28.2,0,0,1-1.21,2.89c-11.22,19.14-22.67,38.11-33.64,57.42-12.87,22.68-25.36,45.64-37.86,68.58-.8,1.46-1.69,4,.48,4.66a3.93,3.93,0,0,0,4.5-1.83c5.74-8.41,11-16.05,16.25-24.84,20.62-34.4,41-69,61.66-103.36,1.28-2.14,3.66-4.45,5.78-4.79,6.25-1,16.62-1.34,22.95-1.44s12-11.4,7-11.57C632.5,198.87,607.83,202.2,610.29,198.54ZM548.17,239.7c-8.4-4.66-15.27-9.08-23.23-12.81-4.82-2.26-5.42-4.57-2.11-8.19,6.61-7.21,13.21-15.94,19.67-23.33,3.15-3.61,4.67-6,1.73-10.31-3.22-4.72-7.64-1.79-10.72,2-7.16,8.82-14.6,17.39-21.29,26.62-3.52,4.85-6.83,5.5-12.13,4.49-9.46-1.8-19.25-3.71-28.71-2.85-25,2.29-49.91,5.94-74.83,9.27-10.45.18-11.25-3.25-13.45-7-1.3-1.93-2.63-5-4.36-6.74-2.52-2.55-5.18-1-7.56,2.07-1.67,2.33,4.92,17.17,11,19.74,8.37,3.85,22.6,3.78,34,1.85,18.18-3.06,36.28-6.8,54.52-9.21,8.77-1.16,15.22-1,24.89,0,.78.46,4.5.33,1.5,4.33-11.52,15.73-18.84,25.31-30.75,41.58-.83,1.33,6.25,4.67,9.92,1.42,7.91-10.72,17.7-23,25.87-33.43,7-8.91,11.2-5.76,15.89-3.27,8,4.26,16.18,8.16,24.34,12.84,2.07,1.19,8.4-7.81,6.24-9m511.22-110.8c.11-4-2.76-3.29-3.47-2.3A222.13,222.13,0,0,1,1040,147.22c-16.62,18.25-33.55,36.14-50.31,54.24-6.66,7.2-13.52,14.22-19.67,21.94-9.64,12.09-9.25,23.33,2,32a29.76,29.76,0,0,0,18.9,6.33c34.87.38,69.76,0,104.63-.22,2.36,0,8,.1,10.51-.74,6.42-1-.21-4.88-12-5.75-27.94-.56-69.61-.81-97.54-1.59-6.39-.18-13.79-1.47-19-6.21a7.79,7.79,0,0,1-2.32-6.49c.92-5,4.27-8.51,7.58-12.84,14.25-18.62,33-34.72,48.79-52.64,9.74-11.09,20.85-21.2,26.5-36a24.54,24.54,0,0,0,1.72-10.18M760.58,234.73c2.67-.64.92.8.61,1.26l-7.61,8c-7.8,8.17-6.4,16.63,3.65,19.89,13.52,4.37,29.92.27,42.9-2.81,15.23-3.62,37.38-10,43.19-10.25,2.31-.37,3.62.19,5.5-.25a2.29,2.29,0,0,0,1.87-2.44c-.37-1.75-4.21-2-6.58-1.76-11.72,1.16-23.49,2.24-35.1,4.31-14,2.51-17.55,4-31.19,6-4.87.75-16.91.59-18.56-1.81a1.6,1.6,0,0,1,0-1.91c3.85-5.88,9.88-10,15.21-14.62a29.6,29.6,0,0,0,8.65-12.69c1.2-3.51-.79-6.39-4.34-5.29-7.38,2.31-14.31,5.08-22.14,6.83-10.18,2-26.6,6.87-31.86,4-1.43-.81.89-5.1,1.57-6.1a123.09,123.09,0,0,1,22.77-24.71,89.32,89.32,0,0,0,10.38-9.72c1-1.18,1.26-4.11.77-5.85-1-3.66-6.37-5-10-2.3-13,9.56-24.9,20.67-32.72,35.92-4.6,9-3.95,15.53,1.46,19.32,6.78,4.77,14.15,4.84,21.75,2.49,6.57-2,13.22-3.7,19.84-5.53M365.33,201.45c2.5-2.21-2.53-5.14-4.68-6.85s-4.46-2.43-5.92-1.66c-18.63,9.8-35.65,22-47.46,41.49-3.56,5.86-2.85,11.26,2,15.79,8.74,8.22,20.35,8.83,30.66,1.16,8.71-6.47,21-16.51,29.52-23.34,3-2.29-3.08-11.5-4.87-9.62-4.7,3.24-8.7,5.57-13.32,9.23-7.24,5.75-14.09,12.12-21.38,17.78-2.52,2-5.84,5.36-9.11,2.46-4.07-4.27,0-7.54,2-10,4.63-6,9.49-12,15.16-16.66,8.86-7.24,17.65-12.78,27.48-19.73M866,256.95c2.42-.25,4.38-.55,5.19-2.37,1.15-2.6.56-5.31-3-7.14-1.39-.71-2-3.94-1.67-5.72a17.21,17.21,0,0,1,3.46-7.56c13.52-16,27-32.07,40.91-47.72,10.53-11.89,21.72-23,32.27-34.92,2.28-2.57,4.43-7.12.69-10.36-2.43-2.11-5.64-4-8.89,0-10.56,13.06-21.22,26-32.12,38.74-11.33,13.19-23.13,25.89-34.46,39.09A150.05,150.05,0,0,0,854,238.21c-5.8,9.49-2.22,17.37,7.87,18.68m108.4-45.64c.25-1.71.42-2.13-5.75-2.46-6-.38-19.25,2.31-23.69,3.87-11.65,3.71-32.51,14-40,34.83-1.4,3.88-2.45,9.6-.4,12.8s7.36,5,11.24,5a30.23,30.23,0,0,0,14.76-4.16c10.38-5.72,26.71-16,32.07-21.2a10.69,10.69,0,0,0,2.18-2.28c.94-1.37,0-3.31-1.25-2.94a56.93,56.93,0,0,0-9,4.31c-6.2,3.87-10.67,7.12-16.77,11.1s-19.31,9.65-22.9,5c-1.08-1.41,0-4.12.75-5.33C920.17,233,938.55,228,958.31,223.9c9.49-2,9.6-1.3,11.94-12.66M651.31,242.72c1.56-3.06,16.81-25.06,27.35-40.85,3.09-5.62-9.67-4.17-12.33,0-7.67,12-16.79,27.16-24.27,39.29-2.31,3.75-3.75,10.25,2.5,15.13a23.42,23.42,0,0,0,11.66,5.22c9.81,1.83,17.69-1,26.11-6.63,2.29-1.46-2.79-9-7.58-5.52-11.19,9.37-27.94,2.37-23.44-6.62m-493.65,6.44c-1,2.23-.07,2.31,1.47,1.69,2.28-.84,3.73-2.08,6.49-3.66m174.26,4.18c8.71-6.47,20.28-15.85,28.77-22.68,3.25-2.5-3.71-4.5-4-9M498.05,228c-11.52,15.73-19.72,27.05-31.64,43.33-.83,1.33,7.92,4.42,9.92,1.42m203.29-72.16" transform="translate(-36.3 -116.74)"/></svg>